{"title":"Air Doll (Kuki Ningyo) 2009 720p WEB-DL H264 [HDCLUB]","uid":9593732,"size":3584367827,"categoryP":"video","categoryS":"hd___movies","magnet":"?xt=urn:btih:093aa0252173232b2509f6be015288efa46e4f04&amp;dn=Air+Doll+%28Kuki+Ningyo%29+2009+720p+WEB-DL+H264+%5BHDCLUB%5D&amp;tr=udp%3A%2F%2Ftracker.openbittorrent.com%3A80&amp;tr=udp%3A%2F%2Fopen.demonii.com%3A1337&amp;tr=udp%3A%2F%2Ftracker.coppersurfer.tk%3A6969&amp;tr=udp%3A%2F%2Fexodus.desync.com%3A6969","seeders":4,"leechers":2,"uploader":"piratebuddha","files":-1,"time":1391968098,"description":" &lt;a href=&quot;http://www.imdb.com/title/tt1371630/&quot; rel=&quot;nofollow&quot; target=&quot;_NEW&quot;&gt;http://www.imdb.com/title/tt1371630/&lt;/a&gt;\n\n==========================================================================\n\nComplete name              : Air.Doll.2009.720p.WEB-DL.H264-HDCLUB.mkv\nFormat                                   : Matroska\nFormat version                           : Version 2\nFile size                                : 3.52 GiB\nDuration                                 : 1h 56mn\nOverall bit rate                         : 4 340 Kbps\nEncoded date                             : UTC 2014-01-09 21:44:51\nWriting application                      : mkvmerge v3.4.0 ('Rapunzel') built on May 15 2010 09:38:20\nWriting library                          : libebml v0.8.0 + libmatroska v0.9.0\n\nVideo\nID                                       : 1\nFormat                                   : AVC\nFormat/Info                              : Advanced Video Codec\nFormat profile                           : &lt;a class=&quot;__cf_email__&quot; href=&quot;/cdn-cgi/l/email-protection&quot; data-cfemail=&quot;c78faea0af878bf4e9f6&quot;&gt;[email&amp;#160;protected]&lt;/a&gt;&lt;script cf-hash='f9e31' type=&quot;text/javascript&quot;&gt;\n/* &lt;![CDATA[ */!function(){try{var t=&quot;currentScript&quot;in document?document.currentScript:function(){for(var t=document.getElementsByTagName(&quot;script&quot;),e=t.length;e--;)if(t[e].getAttribute(&quot;cf-hash&quot;))return t[e]}();if(t&amp;&amp;t.previousSibling){var e,r,n,i,c=t.previousSibling,a=c.getAttribute(&quot;data-cfemail&quot;);if(a){for(e=&quot;&quot;,r=parseInt(a.substr(0,2),16),n=2;a.length-n;n+=2)i=parseInt(a.substr(n,2),16)^r,e+=String.fromCharCode(i);e=document.createTextNode(e),c.parentNode.replaceChild(e,c)}}}catch(u){}}();/* ]]&gt; */&lt;/script&gt;\nFormat settings, CABAC                   : No\nFormat settings, ReFrames                : 2 frames\nCodec ID                                 : V_MPEG4/ISO/AVC\nDuration                                 : 1h 56mn\nBit rate                                 : 3 838 Kbps\nWidth                                    : 1 280 pixels\nHeight                                   : 688 pixels\nDisplay aspect ratio                     : 1.85:1\nFrame rate mode                          : Constant\nFrame rate                               : 23.976 fps\nColor space                              : YUV\nChroma subsampling                       : 4:2:0\nBit depth                                : 8 bits\nScan type                                : Progressive\nBits/(Pixel*Frame)                       : 0.182\nStream size                              : 3.11 GiB (88%)\nLanguage                                 : Japanese\nDefault                                  : Yes\nForced                                   : No\nColor primaries                          : BT.709\nTransfer characteristics                 : BT.709\nMatrix coefficients                      : BT.709\n\nAudio \nID                                       : 3\nFormat                                   : AC-3\nFormat/Info                              : Audio Coding 3\nMode extension                           : CM (complete main)\nFormat settings, Endianness              : Big\nCodec ID                                 : A_AC3\nDuration                                 : 1h 56mn\nBit rate mode                            : Constant\nBit rate                                 : 192 Kbps\nChannel(s)                               : 2 channels\nChannel positions                        : Front: L R\nSampling rate                            : 48.0 KHz\nBit depth                                : 16 bits\nCompression mode                         : Lossy\nStream size                              : 159 MiB (4%)\nLanguage                                 : Japanese\nDefault                                  : No\nForced                                   : No\n\nText\nID                                       : 4\nFormat                                   : UTF-8\nCodec ID                                 : S_TEXT/UTF8\nCodec ID/Info                            : UTF-8 Plain Text\nLanguage                                 : English\nDefault                                  : No\nForced                                   : No \n\n==========================================================================\n\nThousands of candles can be lit from a single candle, and the life of the candle will not be shortened. Happiness never decreases by being shared. ~Siddhartha\n\n#KeepSeeding!\t","torrent":{"xt":"urn:btih:093aa0252173232b2509f6be015288efa46e4f04","amp;dn":"Air+Doll+%28Kuki+Ningyo%29+2009+720p+WEB-DL+H264+%5BHDCLUB%5D","amp;tr":["udp%3A%2F%2Ftracker.openbittorrent.com%3A80","udp%3A%2F%2Fopen.demonii.com%3A1337","udp%3A%2F%2Ftracker.coppersurfer.tk%3A6969","udp%3A%2F%2Fexodus.desync.com%3A6969"],"infoHash":"093aa0252173232b2509f6be015288efa46e4f04","infoHashBuffer":{"type":"Buffer","data":[9,58,160,37,33,115,35,43,37,9,246,190,1,82,136,239,164,110,79,4]},"announce":[],"urlList":[]}}